Coordinates
version=1
nRows=34
nColumns=19
inDegrees=yes

Units are S.I. units (second, meters, Newtons, ...)
If the header above contains a line with 'inDegrees', this indicates whether rotational values are in degrees (yes) or radians (no).

endheader
time	pelvis_tilt	pelvis_list	pelvis_rotation	pelvis_tx	pelvis_ty	pelvis_tz	hip_flexion_r	hip_adduction_r	hip_rotation_r	knee_angle_r	knee_angle_r_beta	ankle_angle_r	hip_flexion_l	hip_adduction_l	hip_rotation_l	knee_angle_l	knee_angle_l_beta	ankle_angle_l
     13.22666667	     -5.87305750	      6.77538953	      4.64170369	      2.42074428	      1.04465947	      1.04468565	    -10.45896947	     -4.29933767	     -2.76000401	     56.46326975	      0.98546996	    -15.27750028	     28.86012275	      9.66615695	    -14.73201085	     20.35589717	      0.35527743	     -2.97424024
     13.23333333	     -6.05084795	      6.96959698	      5.07136923	      2.41971584	      1.03974271	      1.04480951	     -8.80270587	     -4.68841317	     -3.03325999	     60.22733041	      1.05116522	    -14.82814430	     29.25410889	      9.93671973	    -14.61467997	     22.71999729	      0.39653876	     -1.79484278
     13.24000000	     -5.85010540	      7.27182212	      5.47697896	      2.41865040	      1.03489742	      1.04499827	     -7.54187488	     -5.22247509	     -3.36838397	     63.89898004	      1.11524759	    -14.30832458	     29.18115984	     10.27999223	    -14.48317108	     25.24165903	      0.44055006	     -0.22112799
     13.24666667	     -5.44183300	      7.62682971	      5.83380779	      2.41742088	      1.03001371	      1.04529561	     -6.44920693	     -5.83349187	     -3.65090114	     67.50921730	      1.17825812	    -13.69655225	     28.82493514	     10.64860170	    -14.31114792	     27.84378119	      0.48596566	      1.65535689
     13.25333333	     -5.49835730	      7.72823958	      6.11855678	      2.41597240	      1.02442487	      1.04565680	     -4.67936907	     -6.26693969	     -3.70710875	     71.18031954	      1.24233094	    -12.96540614	     28.95164656	     10.75370982	    -14.10389915	     30.51433919	      0.53257569	      3.75543704
     13.26000000	     -4.85767792	      8.13827495	      6.35600260	      2.41457201	      1.01960558	      1.04609255	     -3.72521375	     -7.02861327	     -3.86982284	     74.61874226	      1.30234274	    -12.15130990	     28.12446208	     11.14934139	    -13.87511667	     32.93995287	      0.57491063	      6.10367407
     13.26666667	     -5.16068177	      8.24702366	      6.50346186	      2.41277056	      1.01372897	      1.04662875	     -1.48004083	     -7.58003405	     -3.65300121	     78.19605197	      1.36477857	    -11.24991662	     28.33866889	     11.24617564	    -13.69272577	     35.38839931	      0.61764408	      8.47855345
     13.27333333	     -4.52289779	      8.57742284	      6.65391999	      2.41112691	      1.00919136	      1.04715120	     -0.36846918	     -8.32528334	     -3.62800913	     81.38866610	      1.42050020	    -10.30044131	     27.30134855	     11.56247792	    -13.36211562	     37.48797101	      0.65428852	     11.01096037
     13.28000000	     -4.83128115	      8.74202160	      6.67513682	      2.40905219	      1.00386409	      1.04770863	      2.04900862	     -8.99076779	     -3.15978502	     84.68278689	      1.47799345	     -9.32597172	     27.26297021	     11.71392203	    -13.16436821	     39.45237162	      0.68857378	     13.33775735
     13.28666667	     -4.66743032	      8.97522629	      6.69807936	      2.40707876	      0.99956857	      1.04825413	      3.92351142	     -9.70430070	     -2.76839392	     87.64240598	      1.52964855	     -8.33384016	     26.51490132	     11.93137741	    -12.85306338	     41.08275100	      0.71702927	     15.62311763
     13.29333333	     -4.48394095	      9.23541303	      6.66921903	      2.40504863	      0.99582007	      1.04873395	      5.85220073	    -10.47078604	     -2.28475406	     90.39736522	      1.57773166	     -7.37764816	     25.59530173	     12.17127036	    -12.53911639	     42.41265941	      0.74024055	     17.72118454
     13.30000000	     -4.29416607	      9.46191743	      6.59918783	      2.40305608	      0.99271476	      1.04914278	      7.83260700	    -11.21053036	     -1.73136652	     92.88978891	      1.62123266	     -6.44884724	     24.50872957	     12.37623167	    -12.18442202	     43.43050493	      0.75800531	     19.58356452
     13.30666667	     -4.17431677	      9.61411072	      6.53809430	      2.40113171	      0.99018404	      1.04948962	      9.93310995	    -11.81096440	     -1.10123042	     95.10756446	      1.65994014	     -5.50840842	     23.33927514	     12.50735388	    -11.78978824	     44.16109050	      0.77075643	     21.27831494
     13.31333333	     -3.95588205	      9.73382166	      6.45473586	      2.39934339	      0.98849491	      1.04973246	     11.93687220	    -12.37078778	     -0.48310683	     96.99861225	      1.69294515	     -4.59860235	     21.87899246	     12.60968763	    -11.33214999	     44.54588545	      0.77747237	     22.68699125
     13.32000000	     -3.91700481	      9.81032347	      6.31237350	      2.39776468	      0.98733602	      1.04991287	     14.18365726	    -12.86027788	      0.23589689	     98.60444979	      1.72097231	     -3.78807948	     20.43911170	     12.63934741	    -10.98482765	     44.60973949	      0.77858683	     23.78477803
     13.32666667	     -3.66137625	      9.55789092	      6.35038664	      2.39618452	      0.98720106	      1.04985906	     16.11057891	    -12.94220735	      0.62410386	     99.78772414	      1.74162434	     -3.00710410	     18.65640954	     12.43033453	    -10.14722287	     44.48330109	      0.77638007	     24.69507362
     13.33333333	     -3.75335461	      9.51769543	      6.13435620	      2.39506591	      0.98722195	      1.04988329	     18.46743196	    -13.24012960	      1.32673887	    100.74343682	      1.75830467	     -2.13847125	     17.03786522	     12.33189950	     -9.86099311	     43.94679468	      0.76701626	     25.38486747
     13.34000000	     -3.79042956	      9.07754262	      6.22198220	      2.39416525	      0.98820343	      1.04957733	     20.57924681	    -13.09015418	      1.54759602	    101.23882336	      1.76695080	     -1.43698515	     15.24091933	     11.91395919	     -9.10568546	     43.21546510	      0.75425215	     25.69393387
     13.34666667	     -3.95355237	      8.74692856	      6.12406154	      2.39349765	      0.98948884	      1.04939131	     22.83263733	    -12.98535852	      1.94233298	    101.48459583	      1.77124034	     -0.70769437	     13.45999314	     11.55440000	     -8.63879433	     42.21753192	      0.73683493	     25.83639748
     13.35333333	     -4.22819751	      8.16527273	      6.22409782	      2.39317536	      0.99137068	      1.04885227	     25.01510184	    -12.71551159	      1.91315534	    101.32678023	      1.76848594	     -0.05941424	     11.71969721	     10.98015210	     -7.97592547	     41.06977857	      0.71680286	     25.59415186
     13.36000000	     -4.55113893	      7.55138034	      6.28784280	      2.39304354	      0.99366592	      1.04841584	     27.15730889	    -12.28675761	      1.89454832	    100.87955144	      1.76068032	      0.55732540	      9.96676309	     10.38681476	     -7.26262273	     39.72986753	      0.69341700	     25.05731087
     13.36666667	     -4.38283777	      6.81401238	      6.33531892	      2.39346553	      0.99713702	      1.04791648	     28.52377125	    -11.72184272	      1.58118807	     99.99921806	      1.74531560	      1.15570325	      7.55706667	      9.57126499	     -6.62407271	     38.10738895	      0.66509941	     24.17062590
     13.37333333	     -4.97314169	      6.08075137	      6.51662193	      2.39402092	      1.00003035	      1.04731211	     30.64353364	    -11.23503198	      1.21900219	     98.95224547	      1.72704249	      1.67625403	      6.01229622	      8.82979567	     -6.00107018	     36.50970991	      0.63721465	     22.89455938
     13.38000000	     -5.50219019	      5.23938113	      6.69155865	      2.39478180	      1.00338645	      1.04665647	     32.54272931	    -10.62996555	      0.71883993	     97.58966809	      1.70326102	      2.11588863	      4.43141804	      7.96037428	     -5.36927703	     34.85970376	      0.60841661	     21.18519007
     13.38666667	     -4.84885834	      4.00912657	      7.02520755	      2.39628584	      1.00862274	      1.04572874	     32.73941124	     -9.70153427	     -0.50822855	     95.68101190	      1.66994869	      2.62236476	      1.52907868	      6.45418232	     -4.75056688	     32.98914206	      0.57576915	     19.23738176
     13.39333333	     -4.90652969	      3.10131869	      7.27373675	      2.39779129	      1.01309710	      1.04489205	     33.72714118	     -9.10869596	     -1.40211193	     93.72104156	      1.63574075	      3.03409101	     -0.55047535	      5.37521154	     -4.29370555	     31.13187125	      0.54335366	     16.74935843
     13.40000000	     -5.07334557	      2.09097034	      7.45245651	      2.39945623	      1.01757109	      1.04418571	     34.72849370	     -8.35902669	     -2.31685454	     91.52842083	      1.59747230	      3.40499977	     -2.38129295	      4.14807380	     -4.09007638	     29.38007248	      0.51277900	     13.93400273
     13.40666667	     -6.08025160	      1.38795779	      7.62255674	      2.40113895	      1.02097929	      1.04347102	     36.61109752	     -8.07003615	     -3.05814833	     89.30539645	      1.55867321	      3.74682793	     -3.16431382	      3.31441752	     -4.15868300	     27.87154038	      0.48645015	     10.79079482
     13.41333333	     -5.44692042	      0.25793104	      7.57171527	      2.40329706	      1.02668744	      1.04300454	     36.42773493	     -6.94452181	     -4.00891676	     86.51961361	      1.51005213	      3.97745502	     -5.75466713	      1.84058006	     -4.35872249	     26.02916333	      0.45429460	      7.29866761
     13.42000000	     -5.77572741	     -0.57110169	      7.38244836	      2.40529098	      1.03104749	      1.04275216	     37.30779055	     -6.18871600	     -4.66156722	     83.74154416	      1.46156567	      4.16146399	     -7.10269686	      0.78800244	     -4.95809134	     24.57827418	      0.42897181	      3.63607081
     13.42666667	     -6.14201296	     -1.20048836	      7.16320133	      2.40747439	      1.03529896	      1.04252416	     38.09237177	     -5.59014863	     -5.19896044	     80.79191280	      1.41008489	      4.24285453	     -8.35429793	     -0.04868524	     -5.72471558	     23.21251895	      0.40513488	     -0.13715263
     13.43333333	     -6.34569159	     -1.68767839	      6.84118303	      2.40966129	      1.03961462	      1.04239526	     38.57397623	     -5.09439628	     -5.70865423	     77.66138224	      1.35544682	      4.27519241	     -9.68632755	     -0.74180448	     -6.68790051	     21.98016750	      0.38362629	     -3.97796083
     13.44000000	     -6.76989912	     -2.02475389	      6.30424311	      2.41182654	      1.04349621	      1.04267869	     39.22128792	     -4.56526717	     -5.93885684	     74.38411197	      1.29824766	      4.14470756	    -10.66038044	     -1.23397399	     -7.94962209	     20.98575918	      0.36627059	     -7.72320294
     13.44666667	     -7.52794654	     -1.99761289	      6.03781933	      2.41368629	      1.04677065	      1.04285543	     40.11356079	     -4.60202358	     -6.26223959	     71.04085377	      1.23989680	      3.93879740	    -11.01930909	     -1.39440828	     -8.91149523	     20.44904316	      0.35690313	    -11.33926645
